<svg width="600" height="192" viewBox="0 0 600 192" fill="none" xmlns="http://www.w3.org/2000/svg">
<g clip-path="url(#clip0_4_3)">
<path d="M130.455 93.9952C131.788 94.765 131.788 96.6895 130.455 97.4593L27.3637 156.979C26.0303 157.749 24.3637 156.786 24.3637 155.247L24.3637 36.2077C24.3637 34.6681 26.0303 33.7059 27.3637 34.4757L130.455 93.9952Z" fill="#8F00FF" fill-opacity="0.2"/>
<path d="M155.909 93.9952C157.243 94.765 157.243 96.6895 155.909 97.4593L52.8183 156.979C51.4849 157.749 49.8183 156.786 49.8183 155.247L49.8183 36.2077C49.8183 34.6681 51.4849 33.7059 52.8183 34.4757L155.909 93.9952Z" fill="#8F00FF" fill-opacity="0.6"/>
<path d="M185 93.9952C186.333 94.765 186.333 96.6895 185 97.4593L81.9091 156.979C80.5758 157.749 78.9091 156.786 78.9091 155.247L78.9091 36.2077C78.9091 34.6681 80.5758 33.7059 81.9091 34.4757L185 93.9952Z" fill="#8F00FF"/>
<path d="M230.973 98.248H222.429V90.28L240.477 73.672H211.293V62.824H255.837V72.616L238.749 88.36C249.501 90.472 257.853 98.344 257.853 110.728C257.853 125.128 246.621 134.248 232.413 134.248C218.685 134.248 208.029 125.8 208.029 110.632H220.125C220.125 118.696 225.117 123.304 232.605 123.304C240.285 123.304 245.373 118.312 245.373 110.536C245.373 103.432 240.765 98.248 230.973 98.248ZM293.79 133H268.542V62.824H293.118C313.854 62.824 328.158 77.128 328.158 98.056C328.158 118.696 314.142 133 293.79 133ZM291.966 74.152H280.83V121.672H292.638C306.654 121.672 315.198 112.648 315.198 98.056C315.198 83.176 306.462 74.152 291.966 74.152ZM337.78 112.552V102.184H368.692V112.552H337.78ZM369.085 74.152V62.824H422.461V74.152H401.917V133H389.629V74.152H369.085ZM444.142 62.824V133H431.854V62.824H444.142ZM498.098 104.296H471.986V133H459.698V62.824H503.09V74.152H471.986V93.256H498.098V104.296ZM531.063 105.352L507.351 62.824H521.079L534.903 88.36C535.959 90.28 536.631 91.816 537.399 93.544C538.263 91.816 538.647 90.664 539.895 88.36L553.623 62.824H566.967L543.351 105.352V133H531.063V105.352Z" fill="url(#paint0_linear_4_3)"/>
<path d="M236.973 98.248H228.429V90.28L246.477 73.672H217.293V62.824H261.837V72.616L244.749 88.36C255.501 90.472 263.853 98.344 263.853 110.728C263.853 125.128 252.621 134.248 238.413 134.248C224.685 134.248 214.029 125.8 214.029 110.632H226.125C226.125 118.696 231.117 123.304 238.605 123.304C246.285 123.304 251.373 118.312 251.373 110.536C251.373 103.432 246.765 98.248 236.973 98.248ZM299.79 133H274.542V62.824H299.118C319.854 62.824 334.158 77.128 334.158 98.056C334.158 118.696 320.142 133 299.79 133ZM297.966 74.152H286.83V121.672H298.638C312.654 121.672 321.198 112.648 321.198 98.056C321.198 83.176 312.462 74.152 297.966 74.152ZM343.78 112.552V102.184H374.692V112.552H343.78ZM375.085 74.152V62.824H428.461V74.152H407.917V133H395.629V74.152H375.085ZM450.142 62.824V133H437.854V62.824H450.142ZM504.098 104.296H477.986V133H465.698V62.824H509.09V74.152H477.986V93.256H504.098V104.296ZM537.063 105.352L513.351 62.824H527.079L540.903 88.36C541.959 90.28 542.631 91.816 543.399 93.544C544.263 91.816 544.647 90.664 545.895 88.36L559.623 62.824H572.967L549.351 105.352V133H537.063V105.352Z" fill="white"/>
</g>
<defs>
<linearGradient id="paint0_linear_4_3" x1="387.501" y1="3.29508" x2="387" y2="186.5" gradientUnits="userSpaceOnUse">
<stop stop-color="#444444"/>
<stop offset="1" stop-color="#8F00FF"/>
<stop offset="1.0001"/>
</linearGradient>
<clipPath id="clip0_4_3">
<rect width="600" height="191.716" fill="white"/>
</clipPath>
</defs>
</svg>
