<svg width="600" height="192" viewBox="0 0 600 192" fill="none" xmlns="http://www.w3.org/2000/svg">
<g clip-path="url(#clip0_4_3)">
<path d="M130.455 93.9952C131.788 94.765 131.788 96.6895 130.455 97.4593L27.3637 156.979C26.0303 157.749 24.3637 156.786 24.3637 155.247L24.3637 36.2077C24.3637 34.6681 26.0303 33.7059 27.3637 34.4757L130.455 93.9952Z" fill="#8F00FF" fill-opacity="0.2"/>
<path d="M155.909 93.9952C157.243 94.765 157.243 96.6895 155.909 97.4593L52.8183 156.979C51.4849 157.749 49.8183 156.786 49.8183 155.247L49.8183 36.2077C49.8183 34.6681 51.4849 33.7059 52.8183 34.4757L155.909 93.9952Z" fill="#8F00FF" fill-opacity="0.6"/>
<path d="M185 93.9952C186.333 94.765 186.333 96.6895 185 97.4593L81.9091 156.979C80.5758 157.749 78.9091 156.786 78.9091 155.247L78.9091 36.2077C78.9091 34.6681 80.5758 33.7059 81.9091 34.4757L185 93.9952Z" fill="#8F00FF"/>
<path d="M228.703 108.141C228.703 110.859 229.141 113.109 230.016 114.891C231.641 118.172 234.594 119.812 238.875 119.812C241.5 119.812 243.781 118.922 245.719 117.141C247.688 115.328 248.672 112.734 248.672 109.359C248.672 104.891 246.859 101.906 243.234 100.406C241.172 99.5625 237.922 99.1406 233.484 99.1406V89.5781C237.828 89.5156 240.859 89.0938 242.578 88.3125C245.547 87 247.031 84.3438 247.031 80.3438C247.031 77.75 246.266 75.6406 244.734 74.0156C243.234 72.3906 241.109 71.5781 238.359 71.5781C235.203 71.5781 232.875 72.5781 231.375 74.5781C229.906 76.5781 229.203 79.25 229.266 82.5938H216.797C216.922 79.2188 217.5 76.0156 218.531 72.9844C219.625 70.3281 221.344 67.875 223.688 65.625C225.438 64.0312 227.516 62.8125 229.922 61.9688C232.328 61.125 235.281 60.7031 238.781 60.7031C245.281 60.7031 250.516 62.3906 254.484 65.7656C258.484 69.1094 260.484 73.6094 260.484 79.2656C260.484 83.2656 259.297 86.6406 256.922 89.3906C255.422 91.1094 253.859 92.2812 252.234 92.9062C253.453 92.9062 255.203 93.9531 257.484 96.0469C260.891 99.2031 262.594 103.516 262.594 108.984C262.594 114.734 260.594 119.797 256.594 124.172C252.625 128.516 246.734 130.688 238.922 130.688C229.297 130.688 222.609 127.547 218.859 121.266C216.891 117.922 215.797 113.547 215.578 108.141H228.703ZM287.812 71.9062V117H301.125C307.938 117 312.688 113.641 315.375 106.922C316.844 103.234 317.578 98.8438 317.578 93.75C317.578 86.7188 316.469 81.3281 314.25 77.5781C312.062 73.7969 307.688 71.9062 301.125 71.9062H287.812ZM303.562 59.9062C307.844 59.9688 311.406 60.4688 314.25 61.4062C319.094 63 323.016 65.9219 326.016 70.1719C328.422 73.6094 330.062 77.3281 330.938 81.3281C331.812 85.3281 332.25 89.1406 332.25 92.7656C332.25 101.953 330.406 109.734 326.719 116.109C321.719 124.703 314 129 303.562 129H273.797V59.9062H303.562ZM338.062 95.9062H364.969V108.562H338.062V95.9062ZM425.344 59.9062V72.1406H404.672V129H390.141V72.1406H369.375V59.9062H425.344ZM447.047 129H432.703V59.9062H447.047V129ZM460.547 60H509.531V72.1406H474.891V88.0312H505.219V100.031H474.891V129H460.547V60ZM558.656 59.9062H575.016L551.906 103.031V129H537.469V103.031L513.562 59.9062H530.578L544.922 90L558.656 59.9062Z" fill="#F4F4F4"/>
</g>
<defs>
<clipPath id="clip0_4_3">
<rect width="600" height="191.716" fill="white"/>
</clipPath>
</defs>
</svg>
