<svg xmlns="http://www.w3.org/2000/svg" width="600" height="192" fill="none"><g clip-path="url(#a)"><path fill="#8F00FF" fill-opacity=".2" d="M130.455 93.995c1.333.77 1.333 2.694 0 3.464L27.364 156.98c-1.334.77-3-.193-3-1.732V36.207c0-1.539 1.666-2.501 3-1.731l103.091 59.52Z"/><path fill="#8F00FF" fill-opacity=".6" d="M155.909 93.995c1.333.77 1.333 2.694 0 3.464l-103.09 59.52c-1.334.77-3-.193-3-1.732V36.207c0-1.539 1.666-2.501 3-1.731l103.09 59.52Z"/><path fill="#8F00FF" d="M185 93.995c1.333.77 1.333 2.694 0 3.464L81.91 156.98c-1.334.77-3-.193-3-1.732V36.207c0-1.539 1.666-2.501 3-1.731L185 93.996Z"/><path fill="#F4F4F4" d="m270.837 72.616-25.344 23.328-8.064-5.664 24.576-22.56-2.112 5.952h-33.6V62.824h44.544v9.792Zm-24.864 25.632h-8.544V90.28c1.216-.96 2.816-1.6 4.8-1.92 1.984-.384 3.84-.576 5.568-.576 3.328 0 6.496.512 9.504 1.536 3.008 1.024 5.664 2.528 7.968 4.512 2.368 1.92 4.224 4.32 5.568 7.2 1.344 2.816 2.016 6.048 2.016 9.696 0 4.8-1.12 8.96-3.36 12.48-2.24 3.52-5.312 6.24-9.216 8.16-3.84 1.92-8.128 2.88-12.864 2.88-4.608 0-8.768-.896-12.48-2.688-3.648-1.856-6.56-4.544-8.736-8.064-2.112-3.52-3.168-7.808-3.168-12.864h12.096c0 4.032 1.12 7.168 3.36 9.408 2.304 2.176 5.344 3.264 9.12 3.264 3.84 0 6.912-1.152 9.216-3.456 2.368-2.368 3.552-5.472 3.552-9.312 0-3.52-1.184-6.432-3.552-8.736-2.368-2.368-5.984-3.552-10.848-3.552ZM308.79 133h-25.248V62.824h24.576c6.912 0 12.992 1.504 18.24 4.512 5.248 2.944 9.344 7.072 12.288 12.384 3.008 5.248 4.512 11.36 4.512 18.336 0 6.848-1.472 12.928-4.416 18.24-2.88 5.248-6.912 9.344-12.096 12.288-5.12 2.944-11.072 4.416-17.856 4.416Zm-12.96-64.512v58.944l-5.856-5.76h17.664c4.672 0 8.704-.96 12.096-2.88 3.392-1.92 5.984-4.64 7.776-8.16 1.792-3.52 2.688-7.712 2.688-12.576 0-4.992-.928-9.248-2.784-12.768-1.856-3.584-4.512-6.336-7.968-8.256-3.456-1.92-7.616-2.88-12.48-2.88h-16.992l5.856-5.664Zm56.95 44.064v-10.368h30.912v10.368H352.78Zm64.137-43.872V133h-12.288V68.68h12.288Zm-32.832 5.472V62.824h53.376v11.328h-53.376Zm75.057-11.328V133h-12.288V62.824h12.288Zm27.844 0V133h-12.288V62.824h12.288Zm31.104 11.328h-42.432V62.824h42.432v11.328Zm-4.992 30.144h-37.632v-11.04h37.632v11.04Zm32.965 1.056-23.712-42.528h13.728l13.824 25.536c.512.96.96 1.856 1.344 2.688l1.152 2.496c.32-.576.576-1.12.768-1.632.192-.512.416-1.024.672-1.536.32-.576.672-1.248 1.056-2.016l13.728-25.536h13.344l-23.616 42.528V133h-12.288v-27.648Z"/></g><defs><clipPath id="a"><path fill="#fff" d="M0 0h600v191.716H0z"/></clipPath></defs></svg>